# xmcd
#
# Track frame offsets:
#	182
#	11722
#	33340
#	44660
#	63797
#	77602
#	90030
#	106310
#	121062
#	134657
#	146882
#	164810
#	174662
#	196390
#	210507
#	228180
#	241542
#	256390
#
# Disc length: 3654
#
# Revision: 1
# Processed by: cddbd v1.5.2PL0 Copyright (c) Steve Scherf et al.
# Submitted via: Broken Cross Disk Manager 3.94.2201
#
DISCID=ee0e4412
DTITLE=Merle Haggard - The Country Store Collection
DYEAR=1988
DGENRE=Country
TTITLE0=There, I've Said It Again
TTITLE1=Poncho and Lefty
TTITLE2=I Think I'm Gonna Live Forever
TTITLE3=Are the Good Times Really Over
TTITLE4=That's the Way Love Does
TTITLE5=Still Water Runs the Deepest
TTITLE6=Silver Eagle
TTITLE7=Yesterday's Wine
TTITLE8=Big City
TTITLE9=You Take Me For Granted
TTITLE10=For All I Know
TTITLE11=I'm Gonna Plant Me a Bed of Roses
TTITLE12=Going Where the Lonely Go
TTITLE13=Natural High
TTITLE14=Old Flames
TTITLE15=To All the Girls I've Loved Before
TTITLE16=Stop the World (And Let Me Off)
TTITLE17=The Okie from Muskogee
EXTD=
EXTT0=
EXTT1=
EXTT2=
EXTT3=
EXTT4=
EXTT5=
EXTT6=
EXTT7=
EXTT8=
EXTT9=
EXTT10=
EXTT11=
EXTT12=
EXTT13=
EXTT14=
EXTT15=
EXTT16=
EXTT17=
PLAYORDER=
